# xmcd CD database file
#
# Track frame offsets:
#	182
#	9620
#	30317
#	52602
#	65280
#	74302
#	91090
#	105287
#	121822
#	145860
#	159425
#	181062
#	197307
#
# Disc length: 2837 seconds
#
# Revision: 0
# Processed by: cddbd v1.5.1PL2 Copyright (c) Steve Scherf et al.
# Submitted via: CDex 1.51
#
DISCID=8d0b130d
DTITLE=Matuska Waldemar - Nej, nej, nej v Americe
DYEAR=1900
DGENRE=Country
TTITLE0=Tuhle rundu platim ja
TTITLE1=Po babicce klokoci
TTITLE2=Rano
TTITLE3=Terza
TTITLE4=Holky ja mam vsechny rad
TTITLE5=Jeste par vterin
TTITLE6=Marniva sestrenice
TTITLE7=Vzpominka na San Francisko
TTITLE8=Krysar
TTITLE9=Mam maly stan
TTITLE10=Tam za vodou v rakosi
TTITLE11=Sbohem lasko
TTITLE12=Slavici z Madridu
EXTD=
EXTT0=
EXTT1=
EXTT2=
EXTT3=
EXTT4=
EXTT5=
EXTT6=
EXTT7=
EXTT8=
EXTT9=
EXTT10=
EXTT11=
EXTT12=
PLAYORDER=
